<svg xmlns="http://www.w3.org/2000/svg" viewBox="0 0 51.3 60.56"><defs><style>.cls-1{fill:#a7a9ac;}.cls-2{fill:#6d6e71;}.cls-3{fill:#231f20;}</style></defs><g id="Layer_2" data-name="Layer 2"><g id="Layer_1-2" data-name="Layer 1"><polygon class="cls-1" points="25.71 0 51.3 9.84 48.27 41.41 25.71 60.56 3.71 41.72 0 10.42 25.71 0"/><polygon class="cls-2" points="25.71 0 25.71 60.56 3.71 41.72 0 10.42 25.71 0"/><polygon class="cls-3" points="29.09 9.58 29.08 9.55 29.09 9.55 29.09 9.58"/><path class="cls-3" d="M29.56,10.89,29.1,9.6v0l-6.42,0-.32,0L11.94,39l3.61.62,4.74-13.44H31.14l4.74,13.44L39.49,39Zm-8.45,13L25.37,11.8h.68l4.26,12.08Z"/><polygon class="cls-3" points="29.09 9.58 29.08 9.55 29.09 9.55 29.09 9.58"/><polygon class="cls-3" points="29.57 10.89 29.56 10.89 29.1 9.6 29.57 10.89"/><polygon class="cls-3" points="29.08 9.55 22.66 9.6 22.34 9.55 29.04 9.5 29.08 9.55"/><polygon class="cls-3" points="29.11 9.6 29.1 9.6 29.09 9.58 29.11 9.6"/></g></g></svg>